<?xml version="1.0" encoding="utf-8"?>
<!-- Generator: Adobe Illustrator 25.3.0, SVG Export Plug-In . SVG Version: 6.00 Build 0)  -->
<svg version="1.1" id="Capa_1" xmlns="http://www.w3.org/2000/svg" xmlns:xlink="http://www.w3.org/1999/xlink" x="0px" y="0px"
	 viewBox="0 0 3095 746" style="enable-background:new 0 0 3095 746;" xml:space="preserve">
<style type="text/css">
	.st0{fill:#F2EDE9;}
	.st1{fill:#E7A1CA;}
	.st2{fill:#F4EFEB;}
	.st3{fill:#FEFEFE;}
	.st4{font-family:'BaskOldFace';}
	.st5{font-size:59.9709px;}
	.st6{fill:none;}
	.st7{fill:#824494;}
	.st8{fill:#E1D0E7;}
	.st9{fill:#7A378A;}
	.st10{fill:#7D3D8B;}
	.st11{fill:#81448B;}
	.st12{fill:#B490C2;}
	.st13{fill:#7E4686;}
	.st14{fill:#773C7F;}
	.st15{fill:#EFE2F1;}
	.st16{fill:#A072AF;}
	.st17{fill:#9864A7;}
	.st18{fill:#693179;}
	.st19{fill:#692B80;}
	.st20{fill:#DFCEE6;}
	.st21{fill:#FAF6FB;}
</style>
<g>
	<path class="st0" d="M2174.3,745.57c-722.3,0-1444.6,0-2166.9,0.06c-6.03,0-7.4-0.58-7.39-3.17c0.19-78.35,0.15-156.69,0.15-235.04
		c4.7-1.24,8.86,0.05,12.97,0.64c32.49,4.66,65.71,7.39,100.08,7.26c34.16-0.12,63.84-5.07,89.05-14.99
		c5.7-2.24,11.28-4.56,17.67-6.46c30.61-1.63,60.94-3.91,90.81-7.26c39.36-4.41,77.16-10.41,111.55-19.97
		c37.02-10.28,65.52-23.9,87.18-40.29c22.78-17.24,37.39-35.84,49.64-54.83c16.59-25.74,28.25-51.94,39.52-78.17
		c13.89-32.34,27.15-64.72,38.71-97.23c6.18-17.39,10.07-34.89,14.33-52.37c2.49-2.75,7.74-4.65,11.82-6.9
		c25.48-14.11,44.54-29.46,51-47.35c4.64-12.84,1.78-25.49-6.73-37.81c-11.86-17.15-29.33-33.28-52.42-48.24
		c-1.55-1.01-4.02-1.99-1.79-3.39c812.15,0,1624.3,0,2436.45,0c1.51,1.19,0.75,2.48,0.75,3.72c0.04,121.01,0.04,242.02,0.04,363.03
		c0,4.81-0.16,5.07-11.17,4.56c-34.46-1.61-64.77,3.86-94.87,9.86c-11.45,2.28-21.91,5.34-33.26,7.68c-2.96,0.43-5.79,0.03-8.64-0.3
		c-36.64-4.3-74.06-6.83-111.95-6.38c-89.06,1.07-169.52,12.72-237.73,37.94c-34.51,12.76-63.02,27.8-87.68,44.22
		c-34.37,22.89-61.09,47.45-86.31,72.35c-22.21,21.92-43.29,44.07-68.1,65.49c-14.42,12.45-30.5,24.54-47.4,36.42
		c-11.02,7.75-21.48,15.64-30.44,23.88c-10.56,4.21-22.33,7.78-32.74,12.12c-33.74,14.08-53.33,31.08-60.68,50.91
		c-2.03,5.48-0.47,11.03-3.01,16.46C2176.23,743.27,2176.64,744.59,2174.3,745.57z"/>
	<path class="st1" d="M0.16,468.09C0.16,313.2,0.18,158.31,0,3.42C0,0.75,0.83,0,7.66,0c172.38,0.11,344.75,0.09,517.13,0.09
		c22.02,5.1,39.42,12.57,55.97,20.4c45.72,21.64,67.31,47.6,73.88,76.25c2.99,13.05,3.85,26.1,2.37,39.19
		c-2.91,2.92-8.11,5.1-12.99,7.38c-25.12,11.72-54.41,21.06-87.28,28.43c-33.77,7.57-62.99,17.86-91.01,28.78
		c-29.34,11.44-59.02,22.71-89.24,33.72c-32.34,11.78-60.42,25.1-80.11,41.38c-27.47,22.71-30.45,46.29-13.8,70.63
		c3.71,5.42,8.86,10.58,13.33,15.87c11.39,13.46,15.72,27.29,12.63,41.67c-3.33,15.54-9.13,30.79-22.67,45.34
		c-16.5,17.72-42.39,32.66-74.9,45.56c-1.98,0.79-4.06,1.5-6.75,1.82c-69.22,2.14-132.98-4.36-189.53-22.13
		C9.14,472.62,3.17,470.96,0.16,468.09z"/>
	<path class="st1" d="M3089.98,745.57c-293.96,0-587.92,0-881.89,0c-4.01-3.48-0.88-6.98,0.34-10.37
		c6.89-19.16,21.32-37.35,39.42-55.05c2.68-2.62,5.33-5.25,8.28-7.82c6.6-4.26,16.8-6.71,26.39-9.38
		c39.56-11.06,82.2-18.68,129.28-21.64c38.7-2.43,75.47-7.92,111.22-14.56c43.29-8.04,87.46-15.16,130.97-22.96
		c39.85-7.15,75.38-17.03,104.73-30.69c29.73-13.84,47.64-30.19,53.4-48.86c2.84-9.22,4.43-18.44,2.32-27.81
		c-2.16-9.57,1.4-19.11,8.06-28.25c17.02-23.37,43.67-44.44,84.18-61.95c12.67-5.48,27.11-10.09,42.02-14.4
		c3.74-1.08,7.48-2.27,12.21-2.52c18.33,1.44,35.07,4.84,51.85,8.06c24.67,4.74,48.27,10.38,70.79,16.82
		c3.52,1.01,7.59,1.88,7.24,4.16c-0.01,107.61,0,215.21-0.05,322.81C3090.73,742.63,3091.56,744.15,3089.98,745.57z"/>
	<path class="st2" d="M655.08,136.07c-0.01-7.59,0.58-15.19-0.14-22.76c-1.88-19.66-7.81-39.02-25.35-57.45
		C612.68,38.1,587,23.14,553.54,10.44c-9.39-3.57-20.31-6.33-28.76-10.35c38.09,0,76.17,0,114.26,0c4.19,0.85,7.7,2.02,10.29,3.72
		C672.51,19,692.4,35.03,703.42,52.52c18.91,30.02,3.09,57.33-41.32,81.72C660.37,135.19,658.81,136.45,655.08,136.07z"/>
	<path class="st3" d="M3089.98,745.57c0-107.9,0-215.79,0-323.69c0-1.61-0.05-3.22-0.07-4.83c-2.59-1.61-2.58-3.45-2.58-5.3
		c0.01-10.33,0.05-20.67-0.01-31c-0.03-4.73-1.28-5.05-12.52-5.43c-36.78-1.24-68.61,4.84-99.64,12.17
		c-4.44,1.05-8.63,2.31-13.9,2.49c-24.44,5.53-45.46,13.02-63.68,21.78c-31.76,15.28-54.27,32.99-69.64,52.3
		c-9.31,11.7-11.93,23.73-10.5,36.23c3.64,31.74-17.95,59.6-74.95,81.22c-28.81,10.93-61.81,18.88-97.3,25.05
		c-47.86,8.32-95.72,16.65-143.57,24.99c-32.37,5.64-66.01,9.29-100.42,11.68c-41.14,2.86-78.27,9.96-113.23,19.43
		c-10.62,2.87-21.29,5.73-29.86,9.76c-6.72,4.64-17.1,7.9-24.88,12.14c-23.67,12.91-39.38,27.35-44.44,43.68
		c-1.5,4.85-2.7,9.8-1.89,14.74c0.15,0.93,0.32,1.84-1.34,2.59c-3.75,0-7.51,0-11.26,0c0.99-13.75,3.27-27.41,15.58-40.37
		c9.46-9.96,21.97-19.11,39.24-26.96c13.2-6,26.88-11.79,43.33-16.21c1.75-1.63,4.73-2.7,8.22-3.66
		c38.89-10.71,81.14-17.75,126.71-20.89c33.29-2.29,65.49-6.04,96.45-11.71c48.57-8.9,98.18-16.7,146.85-25.48
		c35.88-6.48,68.87-14.98,96.3-26.98c34.77-15.22,53.21-33.62,57.59-54.82c1.95-9.43,1.94-18.85,1.13-28.25
		c-1.28-14.8,6.64-28.45,23.11-41.37c15.31-12.01,30.57-24.01,49.89-34.97c16.86-9.57,37.63-17.27,60.75-23.88
		c2.67-0.76,5.38-1.54,8.86-1.34c27.81-7.72,57.51-13.7,89.5-17.43c15.12-1.76,30.7-1.63,46.14-0.74c4.22,0.24,6.18-0.09,6.05-1.99
		c-0.08-1.15,0-2.3,0-3.45c0-121.67,0-243.33,0-365c0.5,0.15,1.68-0.35,1.63,0.35c-0.07,0.92-0.02,1.84-0.02,2.76
		c0,246.43,0,492.85-0.1,739.28C3091.49,743.48,3093.35,744.81,3089.98,745.57z"/>
	<path class="st3" d="M655.08,136.07c24.07-11.75,40.37-25.19,48.28-40.5c10.36-20.03,5.36-39.33-14.89-57.9
		c-12.23-11.21-23.62-22.62-40.48-32.77c-2.77-1.67-5.96-3.21-8.95-4.82c4.83,0,9.66,0,14.48,0c8.27,5.59,16.47,11.19,23.45,17.12
		c17.64,14.99,33.49,30.19,39.5,47.01c8.15,22.79-4.96,43.34-33.4,62.48c-8.92,6.01-19.06,11.6-29.62,17.07
		c-3.08,3.77-10.31,6.04-16.72,8.62c-26.43,10.63-56.7,18.8-88.6,26.03c-23.12,5.24-43.34,12.31-62.62,19.81
		c-32.14,12.51-65.12,24.62-98,36.76c-31,11.45-59.79,23.7-80.15,39.19c-27.48,20.9-33.33,42.91-19.07,65.97
		c5.29,8.56,11.64,17.01,19.44,25.2c12.5,13.14,15.4,26.65,10.31,40.56c-4.91,13.4-9.81,26.8-19.8,39.75
		c-13.51,17.51-37.44,32.19-66.32,45.56c-3.11,1.44-6.44,2.79-11.28,3.08c-24.98,11.1-52.75,19.79-90.24,21.52
		c-36.88,1.7-72.24-1.05-107.35-5.27c-7.72-0.93-15.27-2.09-22.9-3.15c0-1.61,0-3.22,0-4.83c3.56-0.74,6.84-0.03,10.06,0.44
		c30.8,4.49,62.5,7.47,94.8,8.57c30.63,1.04,58.66-2.93,83.34-10.91c5.32-1.72,10.1-3.76,16.17-5.03
		c26.12-9.58,47.26-20.9,64.34-33.67c21.18-15.84,30.31-33.17,35.76-51.07c5.15-16.94,2.92-33.51-11.87-49.41
		c-8.16-8.78-15.24-17.63-19.12-26.91c-10.1-24.13,0.49-46.48,30.97-67.26c21.7-14.79,50.51-26.68,81.08-37.93
		c19.5-7.18,39.01-14.36,58.06-21.75c29.4-11.41,58.54-22.93,92.33-32c17.71-4.75,36.79-8.51,54.01-13.62
		C614.72,154.74,636.56,146.17,655.08,136.07z"/>
	<path class="st2" d="M204.54,495.66c-15.73,7.84-36.08,12.37-58.88,15.2c-20.47,2.54-40.93,2.3-61.77,0.77
		c-28.49-2.09-56.64-4.62-83.73-9.04c0-11.5,0-23.01,0-34.51c25.86,9.31,54.25,16.76,86.47,21.3c19.83,2.8,40.01,4.82,60.92,5.74
		C166.57,495.96,185.54,495.48,204.54,495.66z"/>
	<path class="st2" d="M2185.56,745.57c-2.98-12.03,1.27-23.65,10.91-34.94c12.83-15.01,32.64-27.98,61.64-38.21
		c-10.45,10.79-21.66,21.46-29.99,32.61c-9.88,13.22-17.54,26.65-20.03,40.54C2200.58,745.57,2193.07,745.57,2185.56,745.57z"/>
	<path class="st1" d="M2948.29,388.69c-48.45,12.38-80.28,31.01-106.3,51.87c-12.52,10.04-25.75,19.9-30.94,31.28
		c-2.23,4.88-2.84,9.77-2.85,14.72c-0.02,11.03,1.18,22.07-1.4,33.08c-4.26,18.19-18.81,34.53-46.2,48.69
		c-33.75,17.45-78.42,27.81-126.36,36.08c-48.2,8.31-96.41,16.62-144.64,24.9c-29.74,5.1-61.02,7.51-92.35,10.05
		c-45.27,3.67-86.99,11.28-124.8,22.68c0.32-3.1,4.98-5.39,8.16-7.93c20.84-16.7,45.42-32.51,65.06-49.5
		c16.65-14.4,31.95-29.07,46.73-43.85c17.83-17.83,35.58-35.67,55.09-53.19c18.62-16.71,39.13-32.94,63.12-48.34
		c15.18-9.74,32.49-18.75,51.07-27.37c30.53-14.17,65.74-25.55,106.03-34.02c35.79-7.52,73.5-12.42,113.06-14.75
		c20.69-1.22,41.41-2.21,62.27-1.89c32.09,0.48,63.79,2.4,94.98,5.72C2941.54,387.3,2945.42,387.52,2948.29,388.69z"/>
	<path class="st1" d="M220.65,494.32c41.92-16.98,71.26-37.11,83.59-61.49c6.4-12.66,12.7-25.37,13.97-38.32
		c0.82-8.36-2.27-16.67-9.15-24.64c-11.24-13.01-22.94-25.97-28.08-39.79c-7.32-19.67,0.87-38.13,23.15-55.51
		c20.87-16.28,51.05-29.05,83.64-40.96c27.69-10.13,55.01-20.45,82.11-30.86c29.79-11.45,60.71-22.08,96.7-29.93
		c33.17-7.23,61.39-17.46,86.9-29.05c-1.16,9.04-3.77,18.01-5.92,27c-2.61,10.94-6.29,21.81-10.28,32.66
		c-6.35,17.3-13.24,34.56-20.33,51.81c-8.48,20.63-16.99,41.27-26.27,61.84c-12.04,26.69-25.45,53.25-46.69,78.94
		c-14.12,17.08-32.01,33.35-58.52,47.62c-22.31,12.01-49.54,21.55-81.02,28.84c-45.04,10.42-93.67,16.09-143.75,19.78
		C247.43,493.26,234.33,494.86,220.65,494.32z"/>
	<path class="st2" d="M2961.26,389.99c26.82-7.58,55.38-13.51,87.39-15.57c11.27-0.73,22.97-0.51,34.45,0.08
		c4.92,0.25,7.09,1.19,7.03,3.59c-0.33,12.99-0.2,25.98-0.22,38.97c-20.12-5.48-40.32-10.89-61.74-15.43
		C3006.51,397.04,2984.32,393.06,2961.26,389.99z"/>
	<text transform="matrix(1.0005 0 0 1 870.6982 284.5923)"><tspan x="0" y="0" class="st4 st5">PROMO LANZAMIENTO ALBUM DE FIGURITAS</tspan><tspan x="156.76" y="71.97" class="st4 st5">PRECIO DE OFERTA LANZAMIENTO</tspan><tspan x="309.77" y="143.93" class="st4 st5">SOLO POR ESTA SEMANA</tspan></text>
	<rect x="1791.86" y="938.89" class="st6" width="4.76" height="11.11"/>
	<rect x="1899.88" y="345.7" class="st6" width="18.96" height="1.69"/>
</g>
<g>
	<g>
		<g>
			<path class="st7" d="M1520.74,522.92c0.23,3.25-0.76,6.29-2.25,9.16c-6.32,12.14-16.33,20.94-29.61,26.75
				c-0.4,0.17-0.86,0.22-1.29,0.32c0.59-2.74-1.16-4.36-3.89-3.58c-2.06,0.59-2.18,2.09-2.05,3.71c-3.74-0.7-6.91-2.53-10.02-4.38
				c-9.52-5.69-18.24-12.16-24.09-21.3c-0.62-0.97-1.38-1.91-1.32-3.12c1.86,1.06,2.25,3.64,4.89,3.91c0.04,0.38-0.09,0.9,0.14,1.13
				c2.33,2.36,4.71,4.68,7.86,6.19c0.29,0.19,0.59,0.38,0.88,0.57c2.99,3.04,7.22,4.45,10.83,6.66c0.94,0.58,1.6,0.31,1.71-0.89
				c0.11-1.26,0.37-2.53,1.65-3.35c-0.04,0.47,0,0.96-0.13,1.41c-1.11,3.8-0.97,4.12,3.16,5.51c1.58,0.53,3.25,0.86,4.87,1.3
				c1.4,0.37,2.04-0.18,2.08-1.41c0.06-1.79,0.08-3.57,0.13-5.36c0.02-0.64-0.32-1-0.91-1.35c-4.24-2.48-5.34-2.5-9.23-0.07
				c-0.11-0.79,0.21-1.49,0.86-1.94c0.96-0.64,0.73-1.38,0.01-1.74c-2.8-1.4-5.2-3.44-8.32-4.32c-0.15-0.8-0.66-1.25-1.55-1.35
				c-3.18-3.69-7.07-4.93-11.94-2.91c1.1-2.23,3.91-1.08,5.59-2.35c-1.66-2.15-3.59-4.17-4.18-6.87c-0.2-0.89-1.1-1.2-1.89-1.56
				c0-0.21,0-0.43-0.01-0.64c0.63,0.04,1.49,0.52,1.64-0.53c0.35-2.4,2.2-4.09,3.41-6.08c0.6-0.07,0.87-0.41,0.91-0.93
				c1.43-1.11,2.62-2.59,4.79-2.56c0.79,0.98,2.36,0.16,3.12,1.03c1.6,1.84,3.36,1.21,5.18,0.43l0.17-0.02l0.15,0.07
				c0.27,1.13,0.53,2.36,2.12,2.43c2.24,0.1,3.52,1.79,5.4,2.51c2.09,0.8,4.01,1.97,5.98,3.01c0.37,0.2,0.63,0.27,0.87-0.09
				c1.53-2.22,3.93-3.57,6.25-4.95c3.31-1.96,6.44-4.3,11.04-3.01c1.83,0.52,3.3,2.06,5.45,1.68c1.06,2.16,2.54,4.24,1.62,6.79
				c0.16,0.33,0.31,0.66,0.47,1c-1.91,1.65-2.11,4.19-3.78,5.99c-0.51,0.55-1.5,1.27-0.89,2.07c0.44,0.6,1.49,0.03,2.25,0.16
				c1.63,0.28,3.79-0.67,4.59,1.59c-1.53-0.35-2.92-1-4.59-1.06c-4.81-0.15-6.66,3.41-9.39,5.89c-0.2,0.26-0.42,0.51-0.62,0.77
				c-2.83,0.88-4.67,3.1-7.21,4.39c-1.17,0.59,0.58,0.72,0.3,1.2c-0.53-0.01-1.06-0.05-1.59-0.02c-1.98,0.08-5.32,2.24-5.34,3.5
				c-0.03,1.69,0.05,3.39,0.04,5.09c0,1.3,0.52,1.63,1.99,1.33c1.93-0.39,3.77-0.91,5.58-1.59c3.54-1.33,3.6-1.47,2.43-4.82
				c0.19-0.18,0.39-0.37,0.58-0.55c0.34,0.65,0.82,1.28,0.98,1.97c0.26,1.11,0.78,1.08,1.62,0.54c2.97-1.87,6.12-3.54,8.15-6.4
				c0.19-0.17,0.39-0.34,0.59-0.5c2.88-1.29,4.24-3.91,6.33-5.89c1.36-1.29,1.68-2.54,0.12-3.86c0.94-0.51,1.97,1.58,2.87-0.07
				c1.36-2.48,3.4-4.73,3.24-7.73c0.13-0.28,0.26-0.56,0.39-0.83c0.26,0,0.53-0.01,0.79-0.02L1520.74,522.92z M1469.04,533.1
				c-0.46-0.27-0.95-1.08-1.44-0.49c-0.47,0.56,0.44,0.8,0.91,1.06c4.19,3.67,9.6,5.58,14.48,8.25c0.62,0.34,1.5,1.51,2.19,0.36
				c0.52-0.88-0.68-1.3-1.44-1.69C1478.86,538.06,1473.66,536.06,1469.04,533.1z M1500.87,514.95c4.93,0.85,7.02,3.43,6.2,7.82
				c-0.11,0.59-0.05,1.25,0.74,1.33c0.84,0.09,1.14-0.51,1.37-1.2c0.83-2.51-0.23-5.84-2.47-7.49
				C1504.83,514.01,1502.86,513.81,1500.87,514.95z M1462.53,514.07c-2.87,0.2-4.57,1.82-5.32,4.77c-0.84,3.34,1.41,8.67,4.73,10.47
				C1460,524.02,1455.12,518.83,1462.53,514.07z M1506.77,526.14c0.14-0.66-0.06-1.37-0.6-1.17c-1.36,0.49-1.98,1.71-2.43,2.9
				c-0.21,0.55,0.34,0.89,0.94,0.82C1506.38,528.46,1506.36,527.08,1506.77,526.14z"/>
			<path class="st8" d="M1472.09,512.46l-0.15-0.07l-0.17,0.02c-2.53-1.6-5.22-2.45-8.29-1.46c-2.17-0.02-3.36,1.45-4.79,2.56
				c-1.58-1.37-2.64-3.55-5.97-2.82c2.44,0.77,3.75,2.26,5.06,3.74c-1.2,1.99-3.06,3.68-3.41,6.08c-0.15,1.04-1.01,0.56-1.64,0.53
				c-2.73-0.87-5.15-0.24-7.39,1.26c-0.09-5.01,2.3-9.08,6.14-12.42c3.15-2.74,6.7-5.07,11.01-6.18c1.35,1.76,3.04,3.24,4.35,5.01
				c0.01-2.4-1.52-3.81-3.33-5.04c2.73-0.76,9.74,1.02,11.28,2.88c0.86,2.6,1.71,5.2,2.57,7.81
				C1475.45,514.08,1474.18,512.34,1472.09,512.46z"/>
			<path class="st9" d="M1414.09,621.19c0.01-2.6,0.09-5.2-0.02-7.8c-0.05-1.05,0.16-1.54,1.39-1.5c2.05,0.07,4.1-0.1,6.15,0.28
				c2.4,0.45,4.42,1.22,5.2,3.61c0.82,2.53-0.48,4.5-2.5,5.67c-2.04,1.17-1.47,1.92-0.41,3.13c1.11,1.27,2.15,2.6,3.16,3.93
				c0.44,0.59,0.76,1.26,1.14,1.89c0.01,0,0.05-0.01,0.09-0.01c-0.73-0.2-1.3,0.36-1.89,0.38c-0.47,0.02-0.91-0.59-1.27-1.1
				c-1.4-1.97-3.06-3.79-4.39-5.79c-0.89-1.35-2.13-1.46-3.43-1.16c-1.35,0.31-0.69,1.49-0.74,2.29c-0.08,1.21,0.1,2.44,0.02,3.65
				c-0.04,0.71,0.71,1.84-1.14,1.82c-1.62-0.02-1.35-0.85-1.33-1.76c0.04-2.52,0.02-5.04,0.03-7.55
				C1414.11,621.19,1414.1,621.19,1414.09,621.19z M1416.52,617.11c0.19,1.73-0.99,3.97,2.7,3.69c3.66-0.28,5.33-1.12,5.32-3.48
				c-0.02-2.39-1.69-3.21-5.63-3.47C1415.36,613.62,1416.9,615.87,1416.52,617.11z"/>
			<path class="st10" d="M1465.76,630.83c-2.36,0.8-3.1-0.32-3.43-1.83c-0.48-2.28-1.84-3.29-4.43-2.83c-0.6,0.11-1.28,0.13-1.87,0
				c-3.34-0.76-4.85,0.99-5.51,3.5c-0.27,1-0.77,0.98-1.44,0.86c-0.87-0.16-1.07-0.66-0.68-1.45c2.4-4.77,3.87-9.84,5.99-14.69
				c0.41-0.93,0.24-2.32,2.11-2.38c2.03-0.06,1.62,1.3,2.19,2.32C1461.67,619.6,1462.94,625.45,1465.76,630.83z M1456.55,614.63
				c-1.14,2.98-2.11,5.53-3.08,8.08c-0.18,0.48-0.76,1.29,0.1,1.37c2.02,0.19,4.08,0.14,6.1,0.03c0.72-0.04,0.45-0.78,0.29-1.2
				C1458.94,620.3,1458.2,617.56,1456.55,614.63z"/>
			<path class="st8" d="M1452.74,521.69c0.79,0.36,1.7,0.67,1.89,1.56c0.6,2.7,2.52,4.73,4.18,6.87c-1.68,1.27-4.48,0.12-5.59,2.35
				l0.04-0.03c-0.55-0.15-0.95-0.04-1.12,0.51l0.04-0.03c-1.03,0.1-1.43,0.58-1.1,1.5l0.04-0.03c-2.63-0.27-3.03-2.84-4.89-3.91
				c-1.68-2.13-1.06-4.52-0.92-6.85C1447.49,522.04,1449.95,521.34,1452.74,521.69z"/>
			<path class="st10" d="M1409.16,627.12c0.68,1.5,0.23,2.3-1.18,2.88c-6,2.47-13.58,0.74-14.23-7.09
				c-0.26-3.09,0.43-5.83,2.55-8.45c2.24-2.77,9.37-2.98,12.11-1.5c0.93,0.51,0.92,1.12,0.58,1.84c-0.54,1.16-1.2,0.21-1.67-0.02
				c-5.09-2.5-9.98-0.39-10.88,4.79c-0.45,2.61-0.41,5.23,1.71,7.31C1400.97,629.66,1404.19,629.69,1409.16,627.12z"/>
			<path class="st10" d="M1572.32,612.9c1.9,0.37,0.98,1.49,0.97,2.53c-1.99-0.48-3.68-1.35-5.63-1.16
				c-1.75,0.18-3.15,0.74-3.5,2.47c-0.34,1.71,0.88,2.45,2.4,3.05c1.28,0.51,2.58,0.96,3.84,1.54c3.3,1.54,4.37,2.56,4.12,5.07
				c-0.22,2.29-2.48,4.52-5.24,4.86c-1.75,0.22-3.53,0.2-5.31-0.25c-1.87-0.47-3.06-1.15-2.33-3.11c2.71,0.91,5.41,2.28,8.36,0.87
				c0.94-0.45,2.35-0.83,2.24-2.11c-0.11-1.38-0.53-2.75-2.24-3.32c-1.42-0.47-2.92-0.84-4.23-1.49c-1.9-0.94-4.05-1.81-4.19-4.22
				c-0.16-2.54,1.38-4.04,3.83-4.93c0.5,0.71,1.04,0.67,1.6,0.06C1568.79,612.24,1570.52,613.81,1572.32,612.9z"/>
			<path class="st10" d="M1513.21,630.74c-4.66,1.33-7.51,0.18-10.17-4.09c0.61-0.75,0.32-1.48,0.08-2.29
				c-0.67-2.27-1.33-4.57,0.59-6.68c0.39-0.43,0.35-0.91-0.31-1.18c0.47-1.36,1.4-2.36,2.84-2.96c1.96,0.1,3.62-0.81,5.39-1.34
				c5.24,0.52,9.27,6.15,7.5,10.85c-0.43,1.13,0.14,2.46-0.95,3.39c-0.07,0.1-0.12,0.2-0.14,0.32l-0.02,0.04
				c-1.32-0.18-1.11-1-0.82-1.76c0.23-0.61,0.52-1.19-0.26-1.65c-0.16-1.6-0.14-3.24-0.52-4.8c-0.67-2.79-3.04-4.5-5.82-4.46
				c-2.92,0.05-5.25,1.9-5.85,4.74c-0.3,1.43-0.34,2.88-0.16,4.34c0.51,4.09,2.51,5.86,7.03,6.09c0.48,1.29,2.51-1.01,2.69,0.96
				l-0.19,0.06C1513.79,630.46,1513.5,630.6,1513.21,630.74z"/>
			<path class="st10" d="M1468.78,618.92c1.64-5.76,7.29-8.45,13.18-6.27c0.48,0.18,0.96,0.42,1.39,0.7
				c0.72,0.48,0.62,1.15,0.29,1.75c-0.5,0.89-1.02,0.1-1.52-0.07c-0.92-0.3-1.81-0.84-2.75-0.91c-4.68-0.34-7.04,0.5-8.23,5.46
				c-0.37,1.55-0.23,3.06,0.17,4.58c1.01,3.91,4.78,5.87,8.96,4.6c1.16-0.35,2.24-0.95,3.56-1.52c0.54,1.04,0.66,1.87-0.55,2.65
				c-5.06,3.3-12.6,0.89-14.26-4.6C1469.3,623.16,1469.33,621.03,1468.78,618.92z"/>
			<path class="st8" d="M1505.76,504.4c4.63,1.06,8.14,3.42,10.33,7.33c-2.55-0.15-5.03-0.1-6.91,1.83l0.02-0.02
				c-2.93-1.34-5.72-3.13-9.29-2.54C1500.4,507.72,1502.5,505.63,1505.76,504.4z"/>
			<path class="st8" d="M1510.81,520.82c0.91-2.55-0.55-4.63-1.62-6.79c0-0.17,0-0.34,0.01-0.5l-0.02,0.02
				c2.87-0.3,5.68-1.5,8.64-0.47l-0.05-0.02c0.14,0.12,0.28,0.24,0.41,0.37c1.43,2.74,2.5,5.58,2.66,8.64
				c-0.31,0.26-0.34,0.56-0.14,0.89c-0.26,0-0.53,0.01-0.79,0.02c-0.92-1.66-2.57-2.41-4.45-2.53
				C1513.93,520.34,1512.37,520.67,1510.81,520.82z"/>
			<path class="st11" d="M1513.44,666.04c-1.06-0.66-1.22-1.7-1.45-2.73c-0.11-0.5,0.35-1.26-0.46-1.46
				c-0.91-0.22-1.08,0.62-1.44,1.13c-0.93,1.32-2.24,2.28-3.73,3c-3.49,1.71-6.48,0.99-8.66-2.03c-0.28-0.4-0.29-1.25-1.25-0.76
				c0.01-0.39,0.02-0.77,0.02-1.15c1.15-1.7,0.68-3.84,1.86-5.53c0.31,0.02,0.61,0.04,0.92,0.05c-0.05,1.77-0.24,3.55-0.1,5.31
				c0.24,3.21,2.85,4.47,6.03,3.01c1.36-0.63,2.34-1.93,3.62-2.4c3.39-1.26,3.57-4.19,4.84-6.59c0.77-1.44,1.48-2.96,3.12-3.83
				c0.3,0.23,0.6,0.45,0.9,0.68c-3.09,3.77-4.91,7.82-3.39,12.61C1513.99,665.59,1513.72,665.81,1513.44,666.04z"/>
			<path class="st9" d="M1433.14,622.27c0-1.16-0.01-2.32-0.01-3.49c1.07-1.35,0.44-2.9,0.52-4.35c0.07-1.41,0.66-2.06,2.2-1.99
				c2.61,1.11,5.38,0.22,8.05,0.52c0.19,0.02,0.39,0.04,0.59,0.05c0.11,0.15,0.09,0.28-0.05,0.4c-2.85,0.37-5.78-0.56-8.58,0.49
				c-0.93,1.52-0.34,3.17-0.48,4.77c-0.09,1.04,0.72,1.12,1.59,1.13c1.79,0.02,3.56,0.09,5.35,0.14c0.03,1.24-0.83,1.29-1.91,1.35
				c-1.53,0.08-3.14-0.46-4.6,0.37c-0.98,2.09-0.36,4.28-0.41,6.42c-0.02,1.04,1.02,0.9,1.8,0.91c2.39,0.04,4.79,0.07,7.18,0.1
				c0.1,1.21-0.63,1.51-1.8,1.45c-2.55-0.11-5.11,0-7.67-0.17c-1.76-0.12-1.78-0.64-1.53-1.95
				C1433.79,626.38,1434.06,624.29,1433.14,622.27z"/>
			<path class="st8" d="M1493.58,505.58c2.04-1.6,7.38-2.25,9.71-1.19c-2.46,1.63-3.87,3.85-4.43,6.55
				c-1.39,0.54-2.76,1.15-4.18,1.61c-1.3,0.42-2.12,1.88-3.79,1.48c0.07-0.14,0.1-0.28,0.1-0.44c0.96-2.37,1.29-4.95,2.97-7.08
				C1494.27,506.12,1494.09,505.76,1493.58,505.58z"/>
			<path class="st11" d="M1464.19,665.27c-0.83-0.74-1.35-0.29-1.94,0.33c-1.06,1.1-2.31,1.76-4.01,1.15
				c-1.7-0.61-2.43-1.87-2.62-3.39c-0.44-3.43,0.55-6.55,2.78-9.34c0.39,0.18,0.77,0.36,1.16,0.54c-1.5,2.71-2.5,5.54-2.25,8.62
				c0.08,0.97,0.21,2.07,1.4,2.42c1.27,0.37,1.9-0.6,2.52-1.38c1.1-1.39,1.78-2.96,2.47-4.54c0.31-0.72-0.12-2.41,1.6-1.92
				c1.28,0.37,0.35,1.49,0.23,2.29c-0.15,1.03-0.32,2.07-0.42,3.11c-0.15,1.52,0.56,2.3,2.33,2.08c-0.24,0.48-0.55,0.99,0.46,0.99
				c-0.43,0.4-0.96,0.53-1.56,0.43c-0.34-0.65-0.88-0.98-1.69-0.86l0.03,0.02c-0.09-0.37,0.36-0.83-0.23-1.1
				C1464.36,664.89,1464.28,665.08,1464.19,665.27z"/>
			<path class="st7" d="M1497.13,613.93c-0.88,0.47-2.57-0.73-2.79,1.11c-0.77,3.9-0.79,7.81-0.01,11.72
				c-0.74,2.23,0.77,2.6,2.67,2.66c-1.86,0.83-3.78,1.05-5.88,1.14c-2.6,0.11,0.19-1.04-0.52-1.2c1.05-0.08,1.22-0.7,1.21-1.52
				c-0.01-4.11-0.01-8.22,0.02-12.34c0.01-0.94-0.18-1.56-1.43-1.52c-0.85,0.03-2.02,0.16-1.84-1.08c0.18-1.21,1.31-0.74,2.14-0.72
				c1.26,0.87,2.7,0.29,4.06,0.41C1495.85,612.68,1496.91,612.64,1497.13,613.93z"/>
			<path class="st10" d="M1534.61,626.93c-2.27-2.92-4.51-5.85-6.84-8.73c-0.39-0.48-0.47-1.61-1.71-1.11
				c-0.15-0.01-0.3-0.01-0.46,0c-0.1-0.67,0.23-1.44-0.51-1.97c-1.1,1.11-0.6,2.47-0.54,3.69c0.17,3.17-0.73,6.4,0.47,9.53
				c0,0.15,0,0.29-0.01,0.43c-0.7,0.51-0.69,1.02,0.01,1.53c0.01,0.11,0.01,0.22,0.02,0.33c-0.35,0.03-0.72,0.06-1.07,0.09
				c-0.02-5.52-0.05-11.04-0.04-16.56c0-0.48-0.56-1.28,0.39-1.42c0.81-0.12,1.88-0.41,2.44,0.48c2.73,4.35,6.6,8,9.14,12.46
				C1535.24,625.89,1534.71,626.22,1534.61,626.93z"/>
			<path class="st11" d="M1447.99,644.17c0.41-0.68,0.95-1.27,1.89-1c0.92,0.27,1.01,1.06,1.03,1.81c0.07,2.78-0.9,5.44-1.3,8.17
				c-0.67,4.5-1.62,8.98,0.01,13.46c0.15,0.42,0.18,0.89-0.21,1.1c-0.54,0.3-1.1-0.09-1.38-0.44c-0.91-1.18-0.96-2.6-1.02-3.97
				c-0.22-5.05,0.5-10.02,1.77-14.93c0.25-0.96,0.47-1.89,0.38-2.88C1448.75,645.08,1448.68,644.41,1447.99,644.17z"/>
			<path class="st12" d="M1482.39,588.77c-0.38-3.3-0.21-6.61-0.12-9.91c1.85,0.61,3.12,3.06,5.66,1.48c0,2.47,0,4.95-0.01,7.42
				C1486,587.71,1484.62,590.15,1482.39,588.77z"/>
			<path class="st12" d="M1487.57,570.11c0.78,3.09,0.3,6.22,0.32,9.33c-2.42,0.61-3.51-1.92-5.64-1.99c0-2.3,0-4.61,0.01-6.91
				C1484.02,570.45,1485.87,571,1487.57,570.11z"/>
			<path class="st13" d="M1435.76,646.01c-1.41,0.09-1.21,1.26-1.48,1.99c-2.14,5.75-4.19,11.53-6.32,17.29
				c-0.24,0.65-0.16,1.98-1.45,1.57c-1.09-0.34-0.2-1.28-0.01-1.89c2.28-7.24,4.99-14.34,8.06-21.33
				C1435.47,644.22,1435.41,645.2,1435.76,646.01z"/>
			<path class="st9" d="M1549.79,614.15c-1.4-0.01-2.15,0.45-1.92,1.89c0.14,0.87,0.11,1.79-0.01,2.66
				c-0.15,1.07,0.25,1.42,1.42,1.38c1.87-0.06,3.74-0.02,5.61,0c0.59,0.01,1.34-0.11,1.28,0.78c-0.05,0.69-0.67,0.72-1.17,0.65
				c-1.37-0.21-2.61,0.68-3.88,0.48c-3.18-0.49-3.37,1.06-3.29,3.31c0.15,3.94,0.03,3.94,4.36,3.96c1.51,0.01,3.03,0.05,4.54,0.08
				c-0.05,0.64,0.02,1.45-0.99,1.41c-2.89-0.1-5.84,0.5-8.68-0.44c0.01-4.71,0.13-9.42-0.04-14.12c-0.06-1.68,0.6-2.49,2.18-2.94
				c0.2,0,0.4-0.01,0.6-0.01C1549.8,613.55,1549.79,613.85,1549.79,614.15z"/>
			<path class="st11" d="M1435.76,646.01c-0.35-0.81-0.29-1.79-1.2-2.37c0.11-0.81,0.19-1.79,1.34-1.77
				c1.19,0.02,1.16,1.12,1.26,1.84c0.5,3.67,0.81,7.36,1.4,11.01c0.15,0.92-0.71,2.59,1.49,2.66c0.21,0.52,0.43,1.03,0.64,1.55
				c0,0,0.03-0.04,0.02-0.04c-0.42,0.1-0.58,0.37-0.59,0.74c-1.36,1.38-2.18,0.57-2.74-0.63c-0.81-1.74-0.89-3.63-1.08-5.48
				C1436.03,651.04,1435.93,648.52,1435.76,646.01z"/>
			<path class="st8" d="M1484.43,513.65c2.11-2.89,4.35-5.64,8.07-7c-0.58,2.16-2.21,4.02-2.13,6.35c-0.03,0.49-0.06,0.98-0.09,1.47
				c-0.81,1.76-2.55,2.52-4.26,3.33c-1-0.94-0.4-2.49-1.56-3.37l0.02,0.03C1484.45,514.2,1484.44,513.92,1484.43,513.65z"/>
			<path class="st8" d="M1476.51,508.06c2.09,0.05,2.85,1.76,4.17,2.75c1.15,0.87,2.23,1.83,3.34,2.75
				c-0.02,0.37-0.14,0.78,0.44,0.91l-0.02-0.03c0.01,1.32,0.03,2.63,0.04,3.95c-2.06-1.27-4.84-1.6-6.11-3.89
				C1477.76,512.35,1477.14,510.2,1476.51,508.06z"/>
			<path class="st11" d="M1529.55,663.51c2.99,2.43,5.23,2.02,7.03-0.23c1.29-1.62,0.98-3.46-0.95-4.49
				c-0.98-0.52-2.1-0.85-3.15-1.26c0.4-0.36,1.24-0.67,0.12-1.16c2.97,0.14,4.87,1.32,6.04,3.74c1.18,2.43-0.37,4.83-4.06,6.35
				c-2.36,0.96-4.81,0.13-5.89-2C1528.97,664.14,1529.26,663.83,1529.55,663.51z"/>
			<path class="st7" d="M1534.61,626.85c0.1-0.63,0.63-0.97,1.3-1.18l-0.03,0.07c0.19,0.2,0.39,0.4,0.58,0.59
				c2.1,0.83,0.71-1.13,1.4-1.43c0.86-0.19,0.94,0.8,1.58,0.91l0.03-10.61c-0.43,2.26-0.43,4.52-0.44,6.78c0,0.98,0.13,2-1.15,2.49
				c-0.07-3.55-0.1-7.1-0.23-10.64c-0.06-1.59,1.49-0.81,2.36-1.53l-0.04,18.05c-0.44-0.66-0.52-1.32-0.6-1.98
				c-0.1,0-0.2,0-0.31,0.01c-0.03,0.63-0.07,1.26-0.1,1.89c-0.17,0.01-0.33,0.02-0.49,0.02c-0.96-0.22-0.97-1.54-2.13-1.52
				C1536.36,627.69,1536.08,626.86,1534.61,626.85L1534.61,626.85z M1538.36,622.96l-0.54,0l0.02-8.79l0.54,0L1538.36,622.96z"/>
			<path class="st12" d="M1487.55,562.79c-0.02,2.12-0.03,4.25-0.04,6.38c-1.71,0.77-3.44,0.04-5.16,0.05
				c-0.28-2.49-0.19-4.98-0.04-7.47C1483.92,562.67,1485.54,563.55,1487.55,562.79z"/>
			<path class="st12" d="M1481.65,559.27c-0.14-1.61-0.01-3.12,2.05-3.71c2.73-0.78,4.48,0.84,3.89,3.58
				c-0.01,0.89-0.03,1.79-0.04,2.69c-1.93,0.4-3.56-0.53-5.3-0.97C1482.04,560.33,1481.85,559.8,1481.65,559.27z"/>
			<path class="st10" d="M1479.1,661.05c0.58-1.34,1.14-2.69,1.75-4.01c0.2-0.44,0.53-0.92,1.18-0.71c0.66,0.21,0.51,0.79,0.43,1.24
				c-0.31,1.66-0.72,3.3-0.95,4.97c-0.09,0.64-0.68,1.75,0.95,1.67c0.02,0.38,0.05,0.77,0.07,1.15c-1.05,0.76-2.07,1.53-2.23,2.86
				c-0.52,0.29-0.69,1.03-1.49,0.97c-0.06-0.55,0.26-1.23-0.65-1.47c0.14-0.38,0.62-0.8-0.17-1.06c1.2-1.02,2.15-2.12,1.63-3.75
				c-0.7-0.11-0.9-0.6-1-1.15l-0.02,0.05C1479,661.69,1479.14,661.42,1479.1,661.05z"/>
			<path class="st12" d="M1487.83,588.58c0.31,2.34,0.32,4.68-0.04,7.02c-1.69-1.14-3.4-1.54-5.16-0.11
				c-0.76-1.82-0.48-3.66-0.16-5.51C1484.64,590.72,1486.22,589.6,1487.83,588.58z"/>
			<path class="st13" d="M1440.69,658.94c-0.21-0.52-0.43-1.03-0.64-1.55c2.54-4.46,4.59-9.16,7.94-13.22
				c0.69,0.23,0.77,0.91,1.18,1.34c-1.37,0.25-1.63,1.4-2.14,2.28C1444.87,651.49,1442.79,655.22,1440.69,658.94z"/>
			<path class="st11" d="M1525.56,665.54c-1.65,1.58-3.33,1.99-5.01,0.06c-0.44-0.51-0.91-0.7-1.57-0.48
				c0.01-0.6,0.27-1.26-0.49-1.68c0.69-1.66,1.38-3.32,2.07-4.98c0.21-0.5,0.33-1.19,1.12-1.05c0.89,0.15,0.62,0.97,0.58,1.42
				c-0.11,1.28-0.53,2.54-0.64,3.81c-0.24,2.8,0.34,3.16,3.27,2.15C1525.11,665.04,1525.34,665.29,1525.56,665.54z"/>
			<path class="st10" d="M1488.89,665.84c-1.43-0.74-0.15-2.14-0.97-3.18c-0.54-0.68-0.77-0.17-1.12-0.22
				c-0.24-0.22-0.48-0.43-0.72-0.65c3.08-1.46,2.33-4.48,3.36-6.78c0.45-1,0.06-3.09,1.41-2.79c1.97,0.43,0.37,2.17,0.19,3.23
				c-0.57,3.25-1.83,6.4-1.37,9.77C1489.4,665.43,1489.14,665.64,1488.89,665.84z"/>
			<path class="st14" d="M1477.98,666.66c0.8,0.26,0.31,0.68,0.17,1.06c-1.6,1.1-3.62,1.8-4.62,3.48c-0.84,1.4-1.65,3.06,0.23,4.31
				c1.95,1.29,2.75-0.44,3.77-1.45c0.42,0.01,0.84,0.01,1.27,0.02c-1.54,2.89-3.22,3.52-5.79,2.19c-2.28-1.18-2.49-3.14-0.57-5.55
				C1473.88,668.9,1475.77,667.6,1477.98,666.66z"/>
			<path class="st14" d="M1532.6,656.38c1.12,0.49,0.28,0.8-0.12,1.16c-3.1-1.84-3.14-3.52,0-5.06c1.75-0.86,3.6-1.67,5.93-1.04
				c-1.52,1.72-3.83,1.41-5.53,2.35C1531.19,654.71,1531.17,655.37,1532.6,656.38z"/>
			<path class="st11" d="M1475.67,654.58c-0.91,2.69-2.64,5.19-2.19,8.18c-0.38,0.18-0.76,0.36-1.14,0.54
				c-1.01-1.89-0.01-6.13,2.18-9.26C1474.91,654.23,1475.29,654.41,1475.67,654.58z"/>
			<path class="st13" d="M1459.56,654.56c-0.39-0.18-0.77-0.36-1.16-0.54c2.26-3.38,4.25-4.08,6.66-2.31
				c1.11,0.81,1.64,1.8,1.22,3.38c-1.46-0.9-1.13-3.02-3.11-3.06C1461.22,651.99,1460.62,653.56,1459.56,654.56z"/>
			<path class="st13" d="M1475.67,654.58c-0.38-0.18-0.77-0.35-1.15-0.53c1.21-1.73,2.49-3.36,5.03-3.49
				c1.04-0.06,1.89,0.41,2.67,0.97c0.32,0.23,0.46,0.54,0.22,0.84c-0.12,0.15-0.54,0.27-0.66,0.2
				C1478.67,650.61,1477.36,653.04,1475.67,654.58z"/>
			<path class="st15" d="M1520.5,557.79c-2.87-1.88-4.83-4.48-6.77-7.08c-0.19-0.25-0.32-0.63,0.09-0.85
				c0.56-0.29,1.09-0.07,1.41,0.32C1517.23,552.56,1519.39,554.85,1520.5,557.79z"/>
			<path class="st14" d="M1433.14,622.27c0.92,2.02,0.65,4.11,0.25,6.15c-0.26,1.31-0.23,1.84,1.53,1.95
				c2.56,0.17,5.12,0.06,7.67,0.17c1.18,0.05,1.91-0.24,1.8-1.45c0.86,0.95,1.19,1.87-0.67,1.91c-3.19,0.08-6.38-0.02-9.57,0.01
				c-1.05,0.01-1.38-0.34-1.32-1.28C1432.98,627.25,1433.04,624.76,1433.14,622.27z"/>
			<path class="st13" d="M1499.25,656.58c-0.31-0.02-0.61-0.04-0.92-0.05c0.55-2.3,1.9-4.15,3.97-5.53c0.98-0.65,2.08-1.35,3.3-0.28
				c-0.42,0.16-0.84,0.33-1.26,0.49C1501.68,652.25,1500.9,654.76,1499.25,656.58z"/>
			<path class="st11" d="M1514.28,630.26c-0.18-1.97-2.21,0.33-2.69-0.96c3.32-0.82,4.58-3.17,5.32-5.91
				c0.79,0.46,0.49,1.03,0.26,1.65c-0.28,0.77-0.5,1.58,0.82,1.76C1517.27,628.4,1516.1,629.62,1514.28,630.26z"/>
			<path class="st15" d="M1454.63,549.96c-0.88,2.66-2.86,4.61-4.69,6.63c-0.31,0.34-0.76,0.85-1.31,0.43
				c-0.49-0.38-0.19-0.94,0.11-1.32C1450.43,553.55,1452.1,551.4,1454.63,549.96z"/>
			<path class="st13" d="M1488.89,665.84c0.25-0.2,0.51-0.4,0.77-0.61c2.29,0.52,3.88-0.44,5.27-1.96c0.43-0.47,0.41-1.48,1.55-1.22
				c-0.01,0.39-0.02,0.77-0.02,1.15C1494.3,666.46,1491.47,667.44,1488.89,665.84z"/>
			<path class="st15" d="M1430.05,522.24c3.26-0.69,6.51-0.89,10.36,0.13C1436.54,523.27,1433.28,523.56,1430.05,522.24z"/>
			<path class="st7" d="M1482.63,595.49c1.76-1.44,3.47-1.04,5.16,0.11c0.02,1.77-1.47,1.79-2.75,1.78
				C1483.78,597.37,1482.51,597.08,1482.63,595.49z"/>
			<path class="st15" d="M1530.1,522.67c2.55-1.22,5.22-0.61,7.84-0.71c0.46-0.02,0.95,0.25,0.95,0.69c0,0.43-0.5,0.69-0.96,0.68
				C1535.31,523.27,1532.64,523.69,1530.1,522.67z"/>
			<path class="st7" d="M1549.79,614.12c0.01-0.3,0.01-0.61,0.02-0.91c2.14,0.01,4.28,0.01,6.42,0.02c-2.83-0.93-5.8,0.04-8.59-0.93
				c2.74-0.02,5.47-0.05,8.21-0.06c0.75,0,1.41,0.06,1.41,1c0,0.92-0.62,1.01-1.39,1C1553.85,614.2,1551.81,614.16,1549.79,614.12z"
				/>
			<path class="st14" d="M1490.6,629.36c0.7,0.16-2.08,1.32,0.52,1.2c2.1-0.09,4.02-0.31,5.88-1.14c1-0.04,0.89,0.6,0.8,1.15
				c-0.1,0.65-0.73,0.59-1.25,0.59c-2.03,0-4.07,0-6.1-0.03c-0.82-0.01-2,0.32-1.9-0.99
				C1488.65,628.87,1489.78,629.34,1490.6,629.36z"/>
			<path class="st13" d="M1472.34,663.32c0.38-0.18,0.76-0.36,1.14-0.54c2.04,1.01,3.8,0.93,5.13-1.01c0.1,0.55,0.3,1.04,1,1.15
				c-2.25,1.19-4.39,3.07-7.12,0.83C1472.39,663.65,1472.4,663.46,1472.34,663.32z"/>
			<path class="st14" d="M1504.33,651.21c0.42-0.16,0.84-0.33,1.26-0.49c2.79,2.38,2.61,4.49-0.6,5.59
				C1505.27,654.52,1508.13,652.43,1504.33,651.21z"/>
			<path class="st15" d="M1451.88,494.79c1.76,1.62,3.52,3.23,5.27,4.85c0.26,0.24,0.43,0.58,0.11,0.84
				c-0.51,0.4-1.05,0.17-1.41-0.19c-1.57-1.6-3.1-3.23-4.65-4.85C1451.43,495.22,1451.65,495,1451.88,494.79z"/>
			<path class="st13" d="M1525.56,665.54c-0.23-0.25-0.45-0.5-0.67-0.74c0.59-0.68,1.19-1.36,1.78-2.04
				c0.49-0.57,0.64-1.48,1.91-1.1c1.17,0.35,0.71,1.22,0.98,1.86c-0.29,0.32-0.58,0.63-0.87,0.95c-1.55-2.77-1.59,0.76-2.54,0.5
				c-0.2,0.18-0.4,0.36-0.6,0.54L1525.56,665.54z"/>
			<path class="st15" d="M1517.55,495.38c-1.6,2.06-3.42,3.91-5.87,5.17C1513.49,498.69,1514.3,495.94,1517.55,495.38z"/>
			<path class="st13" d="M1518.49,663.43c0.77,0.42,0.5,1.08,0.49,1.68c-1.18,1.72-2.57,2.82-4.83,1.33c0-0.19,0-0.37,0.01-0.55
				c0.1-0.08,0.2-0.17,0.3-0.25C1516.84,666.48,1517.34,664.47,1518.49,663.43z"/>
			<path class="st14" d="M1503.39,616.49c0.67,0.27,0.7,0.75,0.31,1.18c-1.92,2.11-1.26,4.42-0.59,6.68
				c0.24,0.82,0.53,1.54-0.08,2.29C1501.35,623.21,1501.28,619.82,1503.39,616.49z"/>
			<path class="st16" d="M1498.86,510.94c0.56-2.69,1.97-4.91,4.43-6.55c0.82,0,1.65,0,2.47,0c-3.27,1.24-5.36,3.33-5.86,6.6
				C1499.56,510.97,1499.21,510.96,1498.86,510.94z"/>
			<path class="st17" d="M1476.51,508.06c0.62,2.15,1.24,4.3,1.87,6.45c-0.34-0.04-0.68-0.09-1.02-0.14
				c-0.86-2.6-1.71-5.2-2.57-7.81C1475.77,506.67,1476.08,507.42,1476.51,508.06z"/>
			<path class="st17" d="M1452.74,521.69c-2.79-0.35-5.25,0.36-7.43,1.93c0.01-0.44,0.02-0.88,0.04-1.31
				c2.24-1.5,4.66-2.13,7.39-1.26C1452.73,521.26,1452.73,521.47,1452.74,521.69z"/>
			<path class="st17" d="M1482.24,577.46c2.13,0.07,3.21,2.6,5.64,1.99c0.02,0.29,0.03,0.59,0.05,0.88
				c-2.54,1.58-3.81-0.86-5.66-1.48C1482.26,578.39,1482.25,577.92,1482.24,577.46z"/>
			<path class="st16" d="M1517.81,513.08c-2.96-1.03-5.77,0.17-8.64,0.47c1.88-1.92,4.37-1.98,6.91-1.83
				C1516.71,512.12,1517.53,512.32,1517.81,513.08z"/>
			<path class="st11" d="M1478.81,674.07c-0.42-0.01-0.84-0.01-1.27-0.02c0.42-1.63,0.85-3.25,1.26-4.87
				c0.8,0.06,0.96-0.69,1.49-0.97C1480.09,670.23,1479.8,672.22,1478.81,674.07z"/>
			<path class="st14" d="M1435.85,612.44c-1.54-0.07-2.13,0.58-2.2,1.99c-0.07,1.45,0.56,3-0.52,4.35c-0.06-1.45,0.07-2.93-0.2-4.35
				c-0.45-2.38,0.71-2.84,2.93-2.35C1435.86,612.21,1435.86,612.32,1435.85,612.44z"/>
			<path class="st17" d="M1490.36,513c-0.07-2.33,1.55-4.2,2.13-6.35c0.36-0.36,0.72-0.71,1.08-1.06c0.52,0.18,0.69,0.53,0.38,0.93
				c-1.68,2.13-2.01,4.71-2.97,7.08C1490.78,513.39,1490.57,513.2,1490.36,513z"/>
			<path class="st18" d="M1523.99,630.71c0.35-0.03,0.72-0.06,1.07-0.09c0.86-0.61,0.49-1.48,0.5-2.24
				c0.05-3.76,0.04-7.53,0.05-11.3c0.15,0,0.3,0,0.46,0c0.01,4.23,0.01,8.46,0.04,12.69
				C1526.11,631.47,1525.39,631.7,1523.99,630.71z"/>
			<path class="st13" d="M1518.08,651.24c3.17-0.47,4.92,0.96,4.47,3.98c-1.25-1.12-1.15-3.35-3.47-3.18
				C1519.01,651.49,1518.67,651.23,1518.08,651.24z"/>
			<path class="st7" d="M1545.51,629.82c0.02-5.22,0.04-10.43,0.05-15.64c0.16,0.17,0.32,0.33,0.48,0.49
				c-0.02,5.04-0.05,10.08-0.07,15.12C1545.82,629.81,1545.67,629.82,1545.51,629.82z"/>
			<path class="st15" d="M1443.99,509.6c-2.04-1.11-4.08-2.22-6.44-3.51C1440.13,505.98,1442.64,507.22,1443.99,509.6z"/>
			<path class="st15" d="M1483.81,503.39c0-1.72,0.01-3.44,0.01-5.77C1485.77,499.89,1485.42,501.65,1483.81,503.39z"/>
			<path class="st16" d="M1463.51,503.67c1.81,1.23,3.34,2.64,3.33,5.04c-1.32-1.78-3.01-3.25-4.35-5.01
				C1462.83,503.69,1463.17,503.68,1463.51,503.67z"/>
			<path class="st14" d="M1545.51,629.82c0.15-0.01,0.31-0.01,0.46-0.02c0.19,0.17,0.38,0.35,0.57,0.52
				c0.17,0.26,0.34,0.28,0.53,0.01c2.84,0.94,5.78,0.34,8.68,0.44c1.01,0.04,0.94-0.77,0.99-1.41c1.03,1.61,0.99,1.88-0.56,1.92
				c-3.22,0.08-6.44,0-9.66,0.02C1545.23,631.3,1545.37,630.58,1545.51,629.82z"/>
			<path class="st15" d="M1467.21,558.87c-0.63,1.71-1.27,3.42-1.91,5.13c-0.77-2.13-0.28-3.93,1.25-5.46
				C1466.77,558.65,1466.99,558.76,1467.21,558.87z"/>
			<path class="st19" d="M1545.56,614.18c0-0.34-0.02-0.67-0.02-1.01c0.12-0.13,0.2-0.21,0.32-0.34c0.61-0.14,1-0.85,1.77-0.54
				c2.79,0.97,5.76,0,8.59,0.93c-2.14-0.01-4.28-0.01-6.42-0.02c-0.2,0-0.4,0.01-0.6,0.01c-1.17,0.06-2.76-0.53-2.67,1.44
				c-0.16-0.01-0.33-0.02-0.49-0.02C1545.86,614.47,1545.75,614.36,1545.56,614.18z"/>
			<path class="st14" d="M1537.94,624.46c1.28-0.49,1.14-1.52,1.15-2.49c0.01-2.26,0.01-4.52,0.38-6.78
				c-0.01,3.53-0.02,7.06-0.03,10.61c-0.57-0.11-0.65-1.11-1.51-0.91C1537.82,624.75,1537.82,624.6,1537.94,624.46z"/>
			<path class="st7" d="M1487.83,588.58c-1.61,1.02-3.18,2.15-5.35,1.41c-0.03-0.41-0.06-0.81-0.08-1.22
				c2.23,1.38,3.61-1.06,5.54-1.02C1487.9,588.02,1487.86,588.3,1487.83,588.58z"/>
			<path class="st14" d="M1486.07,661.8c0.24,0.22,0.48,0.43,0.72,0.65c-1.12,1.35-2.68,2.15-4.28,2.91
				c-0.02-0.38-0.05-0.77-0.07-1.15C1483.65,663.4,1484.86,662.6,1486.07,661.8z"/>
			<path class="st7" d="M1482.25,560.86c1.74,0.44,3.38,1.37,5.3,0.97c0.22,0.32,0.22,0.64,0,0.96c-2.02,0.77-3.63-0.12-5.25-1.04
				C1482.29,561.45,1482.27,561.16,1482.25,560.86z"/>
			<path class="st15" d="M1529.3,542.01c-2.11-0.66-3.75-1.83-4.84-3.62C1526.47,539.15,1528,540.45,1529.3,542.01z"/>
			<path class="st15" d="M1525.11,509.44c1.03-1.83,2.58-2.64,5.41-2.98C1528.91,507.96,1526.99,508.65,1525.11,509.44z"/>
			<path class="st7" d="M1482.35,569.21c1.72-0.02,3.45,0.72,5.16-0.05c0.02,0.32,0.04,0.63,0.06,0.95
				c-1.7,0.88-3.54,0.34-5.32,0.44C1482.28,570.1,1482.32,569.66,1482.35,569.21z"/>
			<path class="st15" d="M1498.41,493.83c-0.47,1.87-0.95,3.75-1.59,6.27c-1.1-2.81,0.24-4.54,0.81-6.4
				C1497.89,493.75,1498.15,493.79,1498.41,493.83z"/>
			<path class="st14" d="M1494.33,626.76c-0.78-3.91-0.76-7.81,0.01-11.72C1494.33,618.95,1494.33,622.85,1494.33,626.76z"/>
			<path class="st15" d="M1472.24,498.97c-0.75-1.62-0.99-3.37-1.43-5.07C1472.23,495.37,1472.93,497.01,1472.24,498.97z"/>
			<path class="st15" d="M1439.52,541.63c1.5-1.9,2.62-3.3,4.87-3.45C1443.16,539.45,1441.97,540.76,1439.52,541.63z"/>
			<path class="st15" d="M1502.08,559.17c1.02,1.49,1.59,3.1,2,4.93C1502.53,562.98,1501.9,561.49,1502.08,559.17z"/>
			<path class="st14" d="M1468.78,618.92c0.55,2.11,0.52,4.24,0.23,6.38C1468.13,623.2,1468.35,621.06,1468.78,618.92z"/>
			<path class="st14" d="M1497.13,613.93c-0.21-1.29-1.27-1.25-2.36-1.34c-1.35-0.11-2.8,0.47-4.06-0.41
				c1.95-0.02,3.89-0.11,5.84-0.03C1498.12,612.22,1498.18,612.48,1497.13,613.93z"/>
			<path class="st18" d="M1435.82,621.66c1.46-0.83,3.07-0.29,4.6-0.37c1.07-0.06,1.94-0.11,1.91-1.35
				c0.38-0.06,0.75-0.11,0.99,0.27c0.02,0.42,0.03,0.84,0.05,1.26C1440.86,622.06,1438.34,621.71,1435.82,621.66z"/>
			<path class="st19" d="M1435.85,612.44c0.01-0.12,0.01-0.23,0-0.48l1.65,0c1.58,0.7,3.17,0.7,4.75,0.5l1.15,0
				c0.17-0.08,0.33,0.2,0.5,0.49C1441.23,612.66,1438.46,613.55,1435.85,612.44z"/>
			<path class="st14" d="M1467.9,666.22c-1.01,0-0.7-0.51-0.46-0.99c0.06-0.1,0.14-0.12,0.25-0.05c0.26-0.17,0.52-0.33,0.78-0.49
				l-0.05,0.03c0.2-0.16,0.41-0.32,0.61-0.48l-0.03,0.02c0.17-0.19,0.35-0.39,0.52-0.59c0.08-0.41,0.39-0.52,0.78-0.45
				c0.54,0.1,0.39,0.47,0.23,0.73C1469.91,664.96,1469.08,665.76,1467.9,666.22z"/>
			<path class="st14" d="M1538.96,630.26c0.03-0.63,0.07-1.26,0.1-1.89c0.1,0,0.2,0,0.31-0.01c0.08,0.66,0.16,1.32,0.24,1.98
				c-1.22,1.47-1.54,1.36-3.33-1.06c0.02-0.17,0.03-0.34,0.06-0.52c1.17-0.02,1.18,1.3,2.13,1.52
				C1538.64,630.56,1538.81,630.58,1538.96,630.26z"/>
			<path class="st18" d="M1435.85,613.9c2.8-1.05,5.73-0.12,8.58-0.49C1441.65,614.68,1438.71,613.68,1435.85,613.9z"/>
			<path class="st14" d="M1511.62,612.2c-1.77,0.53-3.42,1.45-5.39,1.34C1507.78,612.27,1509.59,611.9,1511.62,612.2z"/>
			<path class="st14" d="M1572.32,612.9c-1.8,0.9-3.54-0.67-5.33-0.12l-0.01-0.01c0.01-0.14,0.01-0.29,0.01-0.43
				C1568.83,612.13,1570.62,612.12,1572.32,612.9z"/>
			<path class="st10" d="M1536.33,628.77c-0.02,0.17-0.03,0.35-0.06,0.52c-0.56-0.79-1.11-1.58-1.67-2.37
				C1536.08,626.84,1536.37,627.68,1536.33,628.77z"/>
			<path class="st14" d="M1442.25,611.98c-1.58,0.56-3.17,0.56-4.75-0.01C1439.09,611.97,1440.67,611.98,1442.25,611.98z"/>
			<path class="st14" d="M1464.66,665.79c0.81-0.12,1.35,0.21,1.69,0.86C1465.63,666.62,1465,666.43,1464.66,665.79z"/>
			<path class="st11" d="M1517.94,651.24c0.6-0.01,0.93,0.26,1.01,0.79c-0.36,0.16-0.72,0.31-1.09,0.47c0-0.41,0-0.82,0-1.23
				L1517.94,651.24z"/>
			<path class="st9" d="M1443.36,621.46c-0.02-0.42-0.03-0.84-0.05-1.26C1443.75,620.61,1443.66,621.04,1443.36,621.46z"/>
			<path class="st14" d="M1443.9,612.96c-0.17-0.28-0.33-0.57-0.5-0.85c0.86-0.19,1.3,0.03,1.08,0.9
				C1444.29,613,1444.1,612.98,1443.9,612.96z"/>
			<path class="st14" d="M1567,612.78c-0.56,0.61-1.09,0.65-1.6-0.06l0.21-0.01c0.46,0.02,0.92,0.04,1.38,0.06L1567,612.78z"/>
			<path class="st14" d="M1464.19,665.27c0.09-0.19,0.17-0.38,0.25-0.56c0.6,0.28,0.14,0.74,0.23,1.1
				C1464.52,665.63,1464.36,665.45,1464.19,665.27z"/>
			<path class="st10" d="M1566.99,612.77c-0.46-0.02-0.92-0.04-1.38-0.06c0.37-0.4,0.86-0.46,1.39-0.37
				C1566.99,612.49,1566.99,612.63,1566.99,612.77z"/>
			<path class="st13" d="M1517.86,651.27c0,0.41,0,0.82,0,1.23c-0.05,0.16-0.17,0.23-0.34,0.22c-0.09-0.2-0.19-0.4-0.28-0.61
				c0.08-0.23,0.14-0.4,0.23-0.63C1517.6,651.42,1517.73,651.34,1517.86,651.27z"/>
			<path class="st16" d="M1520.7,522.95c-0.19-0.33-0.17-0.63,0.14-0.89c-0.04,0.28-0.07,0.57-0.1,0.85
				C1520.74,522.92,1520.7,522.95,1520.7,522.95z"/>
			<path class="st16" d="M1484.47,514.47c-0.58-0.13-0.46-0.54-0.44-0.91c0.14,0,0.27,0.02,0.4,0.08
				C1484.44,513.92,1484.45,514.2,1484.47,514.47z"/>
			<path class="st13" d="M1517.86,652.75c-0.3-0.23-0.6-0.45-0.9-0.68l0.02,0c0.2,0.02,0.4,0.04,0.6,0.05
				c0.09,0.2,0.19,0.4,0.28,0.6C1517.86,652.73,1517.86,652.75,1517.86,652.75z"/>
			<path class="st13" d="M1479.1,661.05c0.05,0.37-0.09,0.64-0.5,0.77C1478.76,661.55,1478.93,661.3,1479.1,661.05z"/>
			<path class="st10" d="M1536.47,626.33c-0.19-0.2-0.39-0.4-0.58-0.59C1536.08,625.93,1536.27,626.13,1536.47,626.33z"/>
			<path class="st11" d="M1517.37,652.13c-0.2-0.02-0.4-0.04-0.6-0.05c0.21-0.16,0.41-0.32,0.62-0.48
				C1517.39,651.77,1517.38,651.95,1517.37,652.13z"/>
			<path class="st11" d="M1513.21,630.74c0.29-0.14,0.58-0.28,0.87-0.42C1513.8,630.46,1513.5,630.6,1513.21,630.74z"/>
			<path class="st11" d="M1469.52,663.68c-0.17,0.19-0.35,0.39-0.52,0.59C1469.18,664.08,1469.35,663.88,1469.52,663.68z"/>
			<path class="st11" d="M1469.03,664.25c-0.2,0.16-0.41,0.32-0.61,0.48C1468.62,664.57,1468.82,664.41,1469.03,664.25z"/>
			<path class="st11" d="M1468.46,664.69c-0.26,0.17-0.52,0.33-0.78,0.49C1467.94,665.02,1468.2,664.85,1468.46,664.69z"/>
			<path class="st11" d="M1525.54,665.5c0.2-0.18,0.4-0.36,0.6-0.54C1525.94,665.14,1525.74,665.32,1525.54,665.5z"/>
			<path class="st13" d="M1513.44,666.04c0.27-0.23,0.55-0.46,0.83-0.69c0.13,0.06,0.19,0.15,0.18,0.28c-0.1,0.08-0.2,0.17-0.3,0.25
				c-0.22,0.05-0.44,0.11-0.66,0.15C1513.49,666.05,1513.44,666.04,1513.44,666.04z"/>
			<path class="st11" d="M1518.02,626.75c0.02-0.12,0.07-0.22,0.14-0.32l0.04,0.19L1518.02,626.75z"/>
			<path class="st11" d="M1513.49,666.05c0.22-0.05,0.44-0.11,0.66-0.15c0,0.19,0,0.37-0.01,0.55
				C1513.93,666.31,1513.71,666.18,1513.49,666.05z"/>
			<path class="st13" d="M1440.12,659.64c0.02-0.37,0.18-0.64,0.59-0.74C1440.51,659.15,1440.32,659.4,1440.12,659.64z"/>
			<path class="st7" d="M1546.04,612.81c-0.17,0.14-0.33,0.28-0.5,0.42C1545.45,612.82,1545.69,612.76,1546.04,612.81z"/>
			<path class="st16" d="M1518.18,513.42c-0.14-0.12-0.28-0.24-0.41-0.37C1517.91,513.18,1518.05,513.3,1518.18,513.42z"/>
			<path class="st8" d="M1466.71,536.73c3.12,0.88,5.52,2.91,8.32,4.32c0.72,0.36,0.95,1.1-0.01,1.74
				c-0.66,0.44-0.98,1.14-0.87,1.94l0.03-0.03c-1.28,0.82-1.54,2.09-1.65,3.35c-0.1,1.2-0.76,1.47-1.71,0.89
				c-3.61-2.22-7.84-3.62-10.83-6.66C1461.46,539.65,1463.17,537.28,1466.71,536.73z"/>
			<path class="st8" d="M1506.38,541.86c-2.03,2.86-5.18,4.53-8.15,6.4c-0.85,0.54-1.37,0.57-1.62-0.54
				c-0.16-0.69-0.64-1.31-0.98-1.97c-0.67-1.58-1.6-2.89-3.71-2.97l0.03,0.03c0.29-0.48-1.47-0.61-0.3-1.2
				c2.54-1.28,4.38-3.51,7.21-4.39C1502.42,537.35,1504.61,539.32,1506.38,541.86z"/>
			<path class="st20" d="M1519.53,523.8c0.16,3-1.88,5.25-3.24,7.73c-0.9,1.65-1.93-0.44-2.87,0.07l0.04,0.03
				c-0.8-2.27-2.96-1.31-4.59-1.59c-0.76-0.13-1.8,0.43-2.25-0.16c-0.6-0.8,0.38-1.52,0.89-2.07c1.67-1.8,1.87-4.34,3.78-5.99
				C1514.47,520.99,1517.41,520.98,1519.53,523.8z"/>
			<path class="st20" d="M1499.47,536.45c2.73-2.48,4.57-6.03,9.39-5.89c1.67,0.05,3.06,0.71,4.59,1.06l-0.04-0.03
				c1.57,1.33,1.24,2.57-0.12,3.86c-2.09,1.98-3.45,4.61-6.33,5.89C1505.68,538.2,1503.05,536.73,1499.47,536.45z"/>
			<path class="st20" d="M1474.15,544.72c3.88-2.43,5-2.41,9.23,0.07c0.59,0.35,0.93,0.71,0.91,1.35c-0.05,1.79-0.06,3.57-0.13,5.36
				c-0.05,1.23-0.69,1.78-2.08,1.41c-1.62-0.44-3.29-0.77-4.87-1.3c-4.13-1.38-4.27-1.7-3.16-5.51c0.13-0.45,0.09-0.94,0.13-1.41
				C1474.18,544.7,1474.15,544.72,1474.15,544.72z"/>
			<path class="st20" d="M1459.11,541.69c-3.16-1.5-5.54-3.82-7.86-6.19c-0.23-0.23-0.1-0.75-0.14-1.13l-0.04,0.03
				c0.58-0.37,1.24-0.7,1.1-1.5l-0.04,0.03c0.53,0.11,0.9-0.06,1.12-0.51l-0.04,0.03c4.86-2.03,8.76-0.78,11.94,2.91
				C1462.91,537.3,1459.86,538.59,1459.11,541.69z"/>
			<path class="st20" d="M1495.05,546.3c1.17,3.36,1.11,3.48-2.43,4.82c-1.81,0.68-3.65,1.21-5.58,1.59
				c-1.46,0.29-1.99-0.03-1.99-1.33c0-1.69-0.07-3.39-0.04-5.09c0.02-1.25,3.36-3.42,5.34-3.5c0.53-0.02,1.06,0.01,1.59,0.02
				l-0.03-0.03C1492.96,543.95,1494,545.12,1495.05,546.3z"/>
			<path class="st9" d="M1477.36,514.36c0.34,0.04,0.68,0.09,1.02,0.14c1.26,2.29,4.05,2.62,6.11,3.89c0.55-0.1,1.48,0.61,1.52-0.58
				c1.71-0.81,3.46-1.58,4.26-3.33c0.2-0.15,0.41-0.3,0.62-0.45c1.68,0.4,2.49-1.05,3.79-1.48c1.42-0.46,2.79-1.06,4.18-1.61
				c0.35,0.02,0.7,0.03,1.04,0.05c3.57-0.59,6.36,1.2,9.29,2.54c0,0.17,0,0.34-0.01,0.5c-2.15,0.39-3.61-1.16-5.45-1.68
				c-4.59-1.3-7.72,1.04-11.04,3.01c-2.32,1.38-4.71,2.73-6.25,4.95c-0.24,0.35-0.51,0.28-0.87,0.09c-1.97-1.04-3.89-2.21-5.98-3.01
				c-1.88-0.72-3.17-2.4-5.4-2.51c-1.59-0.07-1.85-1.3-2.12-2.43C1474.18,512.34,1475.45,514.08,1477.36,514.36z"/>
			<path class="st15" d="M1500.87,514.95c1.99-1.14,3.96-0.93,5.83,0.45c2.24,1.66,3.3,4.98,2.47,7.49c-0.23,0.7-0.53,1.29-1.37,1.2
				c-0.78-0.08-0.85-0.73-0.74-1.33C1507.9,518.37,1505.8,515.79,1500.87,514.95z"/>
			<path class="st15" d="M1469.04,533.1c4.61,2.97,9.82,4.96,14.7,7.48c0.76,0.39,1.96,0.82,1.44,1.69
				c-0.69,1.15-1.57-0.02-2.19-0.36c-4.88-2.67-10.29-4.58-14.48-8.25C1468.69,533.47,1468.87,533.28,1469.04,533.1z"/>
			<path class="st15" d="M1462.53,514.07c-7.41,4.76-2.53,9.95-0.58,15.23c-3.32-1.79-5.58-7.12-4.73-10.47
				C1457.95,515.88,1459.66,514.27,1462.53,514.07z"/>
			<path class="st17" d="M1459.11,541.69c0.75-3.11,3.8-4.4,6.05-6.32c0.88,0.1,1.4,0.55,1.55,1.35c-3.53,0.55-5.25,2.92-6.72,5.54
				C1459.7,542.08,1459.41,541.89,1459.11,541.69z"/>
			<path class="st9" d="M1463.47,510.94c3.08-0.98,5.77-0.14,8.29,1.46c-1.81,0.78-3.57,1.41-5.18-0.43
				C1465.84,511.11,1464.27,511.92,1463.47,510.94z"/>
			<path class="st17" d="M1499.47,536.45c3.58,0.27,6.2,1.75,7.49,4.9c-0.19,0.17-0.39,0.34-0.59,0.5
				c-1.77-2.53-3.96-4.51-7.53-4.63C1499.06,536.97,1499.27,536.71,1499.47,536.45z"/>
			<path class="st16" d="M1519.53,523.8c-2.12-2.82-5.06-2.81-8.24-1.98c-0.16-0.33-0.32-0.66-0.47-1c1.55-0.14,3.12-0.48,4.66-0.38
				c1.87,0.12,3.53,0.87,4.45,2.53C1519.78,523.25,1519.66,523.52,1519.53,523.8z"/>
			<path class="st15" d="M1506.77,526.14c-0.41,0.93-0.39,2.32-2.09,2.54c-0.6,0.08-1.14-0.27-0.94-0.82
				c0.45-1.19,1.08-2.4,2.43-2.9C1506.71,524.78,1506.91,525.48,1506.77,526.14z"/>
			<path class="st17" d="M1457.77,514.43c-1.31-1.49-2.62-2.98-5.06-3.74c3.33-0.73,4.39,1.45,5.97,2.82
				C1458.64,514.02,1458.37,514.36,1457.77,514.43z"/>
			<path class="st17" d="M1495.05,546.3c-1.05-1.17-2.09-2.34-3.14-3.51c2.12,0.08,3.05,1.39,3.71,2.97
				C1495.43,545.93,1495.24,546.11,1495.05,546.3z"/>
			<path class="st20" d="M1468.52,533.66c-0.47-0.26-1.38-0.5-0.91-1.06c0.49-0.58,0.98,0.22,1.44,0.49
				C1468.87,533.28,1468.69,533.47,1468.52,533.66z"/>
			<path class="st21" d="M1416.52,617.11c0.38-1.24-1.15-3.48,2.38-3.26c3.95,0.25,5.62,1.07,5.63,3.47
				c0.01,2.36-1.66,3.19-5.32,3.48C1415.52,621.08,1416.71,618.84,1416.52,617.11z"/>
			<path class="st21" d="M1456.55,614.63c1.65,2.94,2.39,5.67,3.42,8.3c0.17,0.42,0.42,1.16-0.29,1.2c-2.03,0.11-4.09,0.16-6.1-0.03
				c-0.87-0.08-0.29-0.89-0.1-1.37C1454.44,620.15,1455.41,617.6,1456.55,614.63z"/>
			<path class="st7" d="M1452.18,532.91c0.14,0.81-0.52,1.13-1.1,1.5C1450.74,533.49,1451.14,533.01,1452.18,532.91z"/>
			<path class="st7" d="M1453.26,532.44c-0.22,0.45-0.59,0.62-1.12,0.51C1452.31,532.4,1452.71,532.28,1453.26,532.44z"/>
			<path class="st21" d="M1516.91,623.39c-0.73,2.74-2,5.09-5.32,5.91c-4.52-0.24-6.52-1.99-7.03-6.09
				c-0.18-1.47-0.14-2.92,0.16-4.34c0.6-2.85,2.93-4.7,5.85-4.74c2.78-0.05,5.16,1.67,5.82,4.46
				C1516.77,620.14,1516.75,621.78,1516.91,623.39z"/>
			<path class="st7" d="M1490.89,514.02c-0.2,0.15-0.41,0.3-0.62,0.45c0.03-0.49,0.06-0.98,0.09-1.47c0.21,0.2,0.42,0.39,0.63,0.58
				C1491,513.74,1490.96,513.89,1490.89,514.02z"/>
			<path class="st7" d="M1525.61,617.09c-0.01,3.77,0,7.53-0.05,11.3c-0.01,0.76,0.36,1.62-0.5,2.24c-0.01-0.11-0.02-0.22-0.02-0.33
				c0-0.51,0-1.02-0.01-1.53c0.01-0.15,0.01-0.29,0.01-0.43c0.02-4.4,0.04-8.81,0.06-13.21
				C1525.84,615.65,1525.51,616.41,1525.61,617.09z"/>
			<path class="st19" d="M1525.1,615.11c-0.02,4.4-0.04,8.81-0.06,13.21c-1.2-3.13-0.3-6.35-0.47-9.53
				C1524.5,617.58,1524,616.22,1525.1,615.11z"/>
			<path class="st19" d="M1525.03,628.76c0,0.51,0,1.02,0.01,1.53C1524.34,629.78,1524.33,629.27,1525.03,628.76z"/>
			<path class="st7" d="M1546.54,614.7c-0.08-1.97,1.5-1.38,2.67-1.44c-1.59,0.46-2.25,1.26-2.18,2.95
				c0.17,4.7,0.05,9.42,0.04,14.12c-0.18,0.28-0.36,0.26-0.53-0.01C1546.54,625.11,1546.54,619.9,1546.54,614.7z"/>
			<path class="st16" d="M1486.01,517.81c-0.04,1.2-0.97,0.49-1.52,0.58c-0.01-1.32-0.03-2.63-0.04-3.95
				C1485.61,515.32,1485,516.88,1486.01,517.81z"/>
			
				<ellipse transform="matrix(2.417879e-03 -1 1 2.417879e-03 915.958 2155.3425)" class="st18" cx="1538.26" cy="618.58" rx="6.2" ry="0.16"/>
			<path class="st10" d="M1538.96,630.26c-0.15,0.32-0.31,0.3-0.49,0.02C1538.63,630.28,1538.8,630.27,1538.96,630.26z"/>
			<path class="st21" d="M1478.8,669.18c-0.42,1.63-0.84,3.25-1.26,4.87c-1.02,1.01-1.83,2.74-3.77,1.45
				c-1.88-1.24-1.07-2.9-0.23-4.31c1-1.68,3.02-2.39,4.62-3.48C1479.06,667.96,1478.74,668.64,1478.8,669.18z"/>
			<path class="st18" d="M1546.54,614.7c0,5.21,0,10.42,0,15.62c-0.19-0.17-0.38-0.35-0.57-0.52c0.02-5.04,0.05-10.08,0.07-15.12
				C1546.2,614.68,1546.37,614.69,1546.54,614.7z"/>
		</g>
	</g>
</g>
</svg>
